<?xml version="1.0" standalone="no"?>
<!DOCTYPE svg PUBLIC "-//W3C//DTD SVG 20010904//EN"
 "http://www.w3.org/TR/2001/REC-SVG-20010904/DTD/svg10.dtd">
<svg version="1.0" xmlns="http://www.w3.org/2000/svg"
 width="2048.000000pt" height="2048.000000pt" viewBox="0 0 2048.000000 2048.000000"
 preserveAspectRatio="xMidYMid meet">
<metadata>
Created by potrace 1.11, written by Peter Selinger 2001-2013
</metadata>
<g transform="translate(0.000000,2048.000000) scale(0.100000,-0.100000)"
fill="#000000" stroke="none">
<path d="M10100 20001 c0 -5 -1641 -1651 -3646 -3657 -2005 -2007 -3694 -3701
-3752 -3764 -202 -220 -412 -499 -557 -740 -138 -228 -268 -515 -326 -715 -31
-111 -40 -147 -59 -238 -11 -56 -23 -112 -25 -124 -6 -26 -27 -30 -45 -8 -17
21 -50 19 -50 -2 0 -10 -7 -49 -16 -88 -66 -290 -124 -682 -140 -938 -3 -53
-10 -97 -15 -97 -5 0 -9 -157 -9 -375 0 -218 4 -375 9 -375 5 0 12 -44 15 -97
19 -291 89 -661 209 -1103 56 -206 172 -499 271 -690 95 -180 154 -281 264
-450 132 -202 295 -412 504 -650 139 -159 3999 -4011 4187 -4179 64 -57 159
-136 211 -175 89 -68 234 -166 246 -166 2 0 22 -11 43 -24 21 -13 82 -43 137
-66 54 -23 119 -59 144 -79 83 -70 289 -185 420 -236 25 -10 59 -23 75 -30 37
-16 176 -72 230 -92 22 -8 51 -20 65 -25 14 -6 39 -14 55 -19 17 -4 64 -19
105 -33 141 -49 193 -64 322 -91 140 -30 401 -57 466 -48 24 3 46 12 49 20 3
7 -39 82 -94 166 -75 114 -104 168 -118 217 -9 36 -23 83 -30 105 -7 22 -23
74 -36 115 -12 41 -31 95 -42 120 -11 25 -23 59 -27 75 -4 17 -17 64 -28 105
-26 95 -55 242 -77 390 -9 63 -23 151 -30 195 -7 44 -16 103 -20 130 -3 28
-10 66 -15 85 -4 19 -16 71 -25 115 -10 44 -25 103 -34 130 -23 72 -22 626 2
840 10 83 24 206 32 275 39 343 55 505 71 738 7 93 7 93 36 99 35 7 44 22 52
93 14 114 93 433 141 570 7 19 18 51 24 70 7 19 16 49 21 65 5 17 18 55 30 85
12 30 25 66 30 80 4 14 13 39 20 55 7 17 16 39 21 50 4 11 17 41 28 67 12 26
21 49 21 52 0 5 23 56 103 231 101 220 275 557 497 965 34 63 81 149 103 190
59 110 236 373 446 665 92 129 485 651 801 1065 597 785 864 1176 1205 1770 6
10 16 24 22 31 5 8 22 34 35 59 41 74 188 334 199 350 17 28 264 525 300 605
20 44 53 121 74 170 20 50 41 99 45 110 5 11 19 45 31 75 12 30 27 69 34 85 7
17 30 77 50 135 100 285 166 506 214 715 12 50 26 108 31 130 6 22 19 87 30
145 61 317 78 452 101 830 18 273 -6 903 -41 1125 -53 327 -115 573 -241 950
-44 132 -85 244 -90 250 -5 5 -9 15 -9 23 0 8 -6 28 -14 45 -7 18 -23 57 -35
87 -22 55 -32 79 -56 135 -7 17 -48 113 -91 215 -42 102 -83 192 -89 200 -7 8
-16 25 -19 38 -4 12 -12 22 -17 22 -12 0 -12 -47 1 -55 6 -3 10 -16 10 -28 0
-12 11 -72 25 -132 62 -265 130 -700 151 -960 21 -258 16 -737 -10 -1020 -3
-27 -8 -81 -11 -120 -17 -187 -73 -546 -111 -710 -7 -33 -20 -91 -29 -130 -31
-138 -89 -359 -115 -435 -5 -14 -18 -59 -31 -100 -136 -466 -432 -1168 -717
-1705 -121 -227 -200 -372 -229 -417 -13 -21 -23 -40 -23 -43 0 -4 -124 -217
-159 -275 -163 -262 -428 -625 -740 -1015 -97 -121 -192 -238 -211 -261 -19
-22 -80 -96 -135 -164 -55 -67 -128 -156 -162 -196 -180 -215 -516 -642 -675
-861 -155 -212 -458 -675 -458 -699 0 -2 -11 -22 -25 -43 -13 -22 -42 -72 -63
-113 -60 -114 -63 -118 -99 -118 -23 0 -38 -8 -57 -31 -20 -23 -258 -493 -306
-604 -5 -11 -19 -42 -30 -70 -12 -27 -33 -73 -46 -102 -13 -28 -24 -55 -24
-58 0 -4 -7 -21 -14 -38 -8 -18 -31 -75 -51 -127 -20 -52 -40 -104 -45 -115
-18 -40 -89 -249 -120 -355 -12 -41 -26 -86 -30 -100 -5 -14 -22 -77 -38 -140
-132 -520 -167 -865 -157 -1505 3 -198 8 -376 10 -395 2 -19 8 -98 14 -175 6
-77 16 -169 21 -205 6 -36 15 -96 20 -135 19 -140 48 -308 85 -480 41 -195 90
-489 111 -668 7 -56 6 -59 -26 -93 -19 -18 -44 -34 -56 -34 -21 0 -94 86 -235
280 -86 117 -273 408 -302 470 -4 8 -23 42 -42 75 -20 33 -72 134 -116 225
-79 162 -95 195 -125 265 -32 75 -43 102 -59 145 -10 25 -24 59 -31 75 -23 54
-131 387 -162 500 -60 218 -110 447 -137 625 -9 58 -20 132 -26 165 -5 33 -14
112 -19 175 -6 63 -15 169 -21 235 -11 116 -7 754 5 820 3 17 10 80 16 140 29
313 102 673 220 1075 68 229 83 278 96 308 8 18 14 37 14 43 0 6 6 25 14 42 7
18 20 50 29 72 23 61 146 353 174 415 14 30 41 89 60 130 20 41 51 111 70 155
19 44 43 98 53 120 19 41 100 239 127 310 34 87 67 153 114 227 27 42 49 79
49 82 0 3 13 24 29 48 15 24 39 62 52 85 174 307 562 864 931 1334 909 1161
1315 1748 1745 2524 36 65 277 547 305 611 10 21 31 71 48 109 17 39 35 79 40
90 27 60 49 116 66 160 10 28 24 61 31 75 7 14 13 32 13 40 0 9 4 20 8 25 11
13 88 222 142 385 48 144 98 324 130 460 12 52 26 105 31 118 5 13 9 33 9 44
0 12 6 49 14 82 65 285 106 703 106 1091 0 351 -19 576 -76 910 -47 275 -166
708 -239 870 -7 17 -15 39 -17 49 -1 11 -9 21 -17 24 -17 6 -11 -40 22 -168
134 -506 158 -1109 71 -1790 -31 -251 -50 -340 -120 -575 -20 -68 -142 -440
-154 -468 -5 -12 -34 -87 -66 -167 -31 -80 -62 -158 -69 -175 -464 -1078
-1135 -2039 -2080 -2975 -108 -107 -242 -247 -298 -310 -124 -140 -432 -473
-582 -630 -109 -113 -303 -328 -398 -439 -150 -175 -194 -231 -303 -376 -144
-192 -164 -221 -269 -395 -93 -154 -186 -340 -245 -485 l-40 -100 -34 3 c-28
2 -36 -1 -41 -20 -4 -13 -26 -72 -50 -133 -116 -296 -204 -573 -265 -835 -69
-299 -100 -597 -100 -965 0 -258 22 -654 40 -725 4 -19 12 -60 15 -90 4 -30
12 -66 16 -79 5 -13 18 -103 29 -200 33 -293 81 -506 154 -682 8 -19 -138
-213 -165 -217 -13 -2 -20 5 -25 25 -10 41 -125 262 -181 346 -26 40 -94 139
-151 220 -57 81 -132 194 -166 250 -59 97 -234 444 -269 535 -33 82 -66 176
-77 217 -5 17 -13 44 -19 60 -6 17 -25 75 -42 130 -51 163 -104 313 -153 433
-55 137 -69 237 -87 637 -18 407 14 862 91 1285 26 147 80 392 91 411 5 9 20
20 34 23 14 4 25 14 25 23 0 9 7 41 16 72 41 146 47 169 60 211 7 25 25 79 39
120 15 41 31 90 36 108 16 51 213 434 276 534 13 21 23 40 23 43 0 10 232 394
307 507 226 346 514 726 724 953 159 173 238 280 267 362 24 66 27 70 70 76
41 7 41 7 282 267 73 80 181 197 240 260 59 63 131 142 161 176 30 33 88 98
130 145 238 264 579 676 745 899 260 350 448 634 620 935 93 164 251 484 314
635 117 280 122 294 217 585 9 28 20 55 25 61 21 28 78 272 78 338 0 18 9 73
19 122 11 49 24 114 31 144 6 30 15 75 21 100 17 80 39 362 39 505 0 200 -33
525 -69 690 -7 28 -18 82 -27 120 -31 143 -54 222 -114 400 -23 66 -45 134
-50 150 -5 17 -20 71 -35 120 -29 98 -45 161 -71 273 -9 39 -20 72 -25 72 -5
0 -9 -4 -9 -9z"/>
<path d="M11590 18471 c0 -12 5 -21 10 -21 6 0 10 6 10 14 0 8 -4 18 -10 21
-5 3 -10 -3 -10 -14z"/>
<path d="M14440 15920 c0 -6 30 -73 66 -148 77 -161 73 -152 119 -266 38 -94
128 -358 165 -486 12 -41 26 -88 31 -105 32 -108 123 -471 185 -745 8 -36 19
-83 24 -105 15 -65 30 -378 30 -622 -1 -325 -30 -730 -74 -1033 -9 -58 -18
-123 -22 -145 -14 -100 -48 -274 -85 -440 -34 -156 -130 -534 -148 -585 -5
-14 -24 -72 -41 -130 -18 -58 -50 -157 -72 -220 -21 -63 -44 -131 -50 -150 -5
-19 -14 -39 -19 -45 -5 -5 -9 -15 -9 -23 0 -8 -6 -28 -14 -45 -8 -18 -36 -90
-64 -162 -85 -222 -209 -499 -337 -760 -108 -220 -162 -322 -305 -580 -85
-155 -316 -529 -453 -733 -291 -436 -560 -793 -1300 -1724 -65 -81 -150 -190
-190 -241 -39 -52 -116 -151 -170 -220 -113 -146 -353 -477 -480 -663 -314
-460 -573 -924 -747 -1339 -23 -55 -50 -119 -61 -143 -11 -23 -35 -86 -55
-140 -19 -53 -41 -113 -49 -132 -7 -19 -21 -60 -30 -90 -10 -30 -23 -73 -30
-95 -7 -22 -21 -67 -30 -100 -9 -33 -22 -82 -30 -110 -113 -409 -185 -1017
-185 -1560 0 -304 28 -767 65 -1060 8 -60 17 -139 21 -175 10 -105 0 -100 187
-100 292 0 713 47 992 110 22 5 74 16 115 26 222 50 641 181 775 244 39 18
136 60 193 84 88 37 336 166 437 228 50 30 97 57 105 61 8 4 48 28 87 54 233
153 396 280 618 481 209 190 3863 3843 4026 4027 350 392 553 674 764 1060 94
173 235 472 265 565 5 14 18 50 30 80 49 130 132 397 164 530 58 245 91 438
123 705 24 210 24 838 0 1035 -34 265 -55 395 -107 645 -24 113 -81 313 -144
505 -101 309 -253 639 -429 935 -141 235 -266 412 -438 620 -70 85 -3369 3405
-3406 3428 -8 5 -13 3 -13 -3z"/>
</g>
</svg>
